<svg width="28" height="28" viewBox="0 0 28 28" fill="none" xmlns="http://www.w3.org/2000/svg">
<path d="M25.8759 12.1122L25.7523 11.5877H14.3533V16.4123H21.1641C20.457 19.7701 17.1757 21.5376 14.4955 21.5376C12.5453 21.5376 10.4896 20.7173 9.12898 19.3988C8.41112 18.692 7.8397 17.8506 7.44745 16.9227C7.0552 15.9948 6.84981 14.9986 6.84305 13.9913C6.84305 11.9591 7.75633 9.92633 9.08523 8.58922C10.4141 7.25211 12.4212 6.50398 14.4167 6.50398C16.7021 6.50398 18.34 7.7175 18.9525 8.27094L22.3809 4.86062C21.3752 3.97687 18.6123 1.75 14.3063 1.75C10.984 1.75 7.79844 3.02258 5.46984 5.34352C3.17187 7.62891 1.98242 10.9337 1.98242 14C1.98242 17.0663 3.10789 20.2059 5.33477 22.5094C7.71422 24.9659 11.0841 26.25 14.554 26.25C17.7111 26.25 20.7036 25.013 22.8364 22.7686C24.9331 20.5592 26.0176 17.5022 26.0176 14.2975C26.0176 12.9484 25.882 12.1472 25.8759 12.1122Z" fill="white" fill-opacity="0.4"/>
</svg>
