<svg width="124" height="30" viewBox="0 0 124 30" fill="none" xmlns="http://www.w3.org/2000/svg">
<path d="M11.268 23.24L15.624 8.912H22.176L15.048 29H7.452L0.324 8.912H6.912L11.268 23.24ZM27.8632 6.824C26.7832 6.824 25.8952 6.512 25.1992 5.888C24.5272 5.24 24.1912 4.448 24.1912 3.512C24.1912 2.552 24.5272 1.76 25.1992 1.136C25.8952 0.487998 26.7832 0.163998 27.8632 0.163998C28.9192 0.163998 29.7832 0.487998 30.4552 1.136C31.1512 1.76 31.4992 2.552 31.4992 3.512C31.4992 4.448 31.1512 5.24 30.4552 5.888C29.7832 6.512 28.9192 6.824 27.8632 6.824ZM30.9232 8.912V29H24.7672V8.912H30.9232Z" fill="white"/>
<path d="M50.6843 16.04C52.1483 16.352 53.3243 17.084 54.2123 18.236C55.1003 19.364 55.5443 20.66 55.5443 22.124C55.5443 24.236 54.8003 25.916 53.3123 27.164C51.8483 28.388 49.7963 29 47.1563 29H35.3843V3.728H46.7603C49.3283 3.728 51.3323 4.316 52.7723 5.492C54.2363 6.668 54.9683 8.264 54.9683 10.28C54.9683 11.768 54.5723 13.004 53.7803 13.988C53.0123 14.972 51.9803 15.656 50.6843 16.04ZM41.5403 13.952H45.5723C46.5803 13.952 47.3483 13.736 47.8763 13.304C48.4283 12.848 48.7043 12.188 48.7043 11.324C48.7043 10.46 48.4283 9.8 47.8763 9.344C47.3483 8.888 46.5803 8.66 45.5723 8.66H41.5403V13.952ZM46.0763 24.032C47.1083 24.032 47.9003 23.804 48.4523 23.348C49.0283 22.868 49.3163 22.184 49.3163 21.296C49.3163 20.408 49.0163 19.712 48.4163 19.208C47.8403 18.704 47.0363 18.452 46.0043 18.452H41.5403V24.032H46.0763ZM78.0508 18.632C78.0508 19.208 78.0148 19.808 77.9428 20.432H64.0108C64.1068 21.68 64.5028 22.64 65.1988 23.312C65.9188 23.96 66.7948 24.284 67.8268 24.284C69.3628 24.284 70.4308 23.636 71.0308 22.34H77.5828C77.2468 23.66 76.6348 24.848 75.7468 25.904C74.8828 26.96 73.7908 27.788 72.4708 28.388C71.1508 28.988 69.6748 29.288 68.0428 29.288C66.0748 29.288 64.3228 28.868 62.7868 28.028C61.2508 27.188 60.0508 25.988 59.1868 24.428C58.3228 22.868 57.8908 21.044 57.8908 18.956C57.8908 16.868 58.3108 15.044 59.1508 13.484C60.0148 11.924 61.2148 10.724 62.7508 9.884C64.2868 9.044 66.0508 8.624 68.0428 8.624C69.9868 8.624 71.7148 9.032 73.2268 9.848C74.7388 10.664 75.9148 11.828 76.7548 13.34C77.6188 14.852 78.0508 16.616 78.0508 18.632ZM71.7508 17.012C71.7508 15.956 71.3908 15.116 70.6708 14.492C69.9508 13.868 69.0508 13.556 67.9708 13.556C66.9388 13.556 66.0628 13.856 65.3428 14.456C64.6468 15.056 64.2148 15.908 64.0468 17.012H71.7508ZM80.0744 18.92C80.0744 16.856 80.4584 15.044 81.2264 13.484C82.0184 11.924 83.0864 10.724 84.4304 9.884C85.7744 9.044 87.2744 8.624 88.9304 8.624C90.3464 8.624 91.5824 8.912 92.6384 9.488C93.7184 10.064 94.5464 10.82 95.1224 11.756V8.912H101.278V29H95.1224V26.156C94.5224 27.092 93.6824 27.848 92.6024 28.424C91.5464 29 90.3104 29.288 88.8944 29.288C87.2624 29.288 85.7744 28.868 84.4304 28.028C83.0864 27.164 82.0184 25.952 81.2264 24.392C80.4584 22.808 80.0744 20.984 80.0744 18.92ZM95.1224 18.956C95.1224 17.42 94.6904 16.208 93.8264 15.32C92.9864 14.432 91.9544 13.988 90.7304 13.988C89.5064 13.988 88.4624 14.432 87.5984 15.32C86.7584 16.184 86.3384 17.384 86.3384 18.92C86.3384 20.456 86.7584 21.68 87.5984 22.592C88.4624 23.48 89.5064 23.924 90.7304 23.924C91.9544 23.924 92.9864 23.48 93.8264 22.592C94.6904 21.704 95.1224 20.492 95.1224 18.956ZM123.912 3.728V8.66H117.216V29H111.06V8.66H104.364V3.728H123.912Z" fill="#8D40FF"/>
</svg>
