<svg width="32" height="32" viewBox="0 0 32 32" fill="none" xmlns="http://www.w3.org/2000/svg">
<path fill-rule="evenodd" clip-rule="evenodd" d="M16 2C8.26801 2 2 8.26801 2 16C2 23.732 8.26801 30 16 30C23.732 30 30 23.732 30 16C30 8.26801 23.732 2 16 2ZM7.57901 8.77653L8.3277 7.84066C8.69082 7.38676 9.36308 7.33703 9.78902 7.73256L16.0002 13.5001L22.2114 7.73256C22.6373 7.33703 23.3096 7.38676 23.6727 7.84066L24.4214 8.77653C24.7479 9.18473 24.705 9.77559 24.3228 10.1323L17.5002 16.5001V26.0001H14.5002V16.5001L7.67756 10.1323C7.29539 9.77559 7.25244 9.18474 7.57901 8.77653Z" fill="white" fill-opacity="0.4"/>
</svg>
